<?xml version="1.0" standalone="no"?><!DOCTYPE svg PUBLIC "-//W3C//DTD SVG 1.1//EN" "http://www.w3.org/Graphics/SVG/1.1/DTD/svg11.dtd"><svg t="1597398507823" class="icon" viewBox="0 0 1024 1024" version="1.1" xmlns="http://www.w3.org/2000/svg" p-id="6253" xmlns:xlink="http://www.w3.org/1999/xlink" width="128" height="128"><defs><style type="text/css"></style></defs><path d="M908.864 128h-9.6C765.888 128 644.096 85.888 592.64 13.312 586.304 6.912 572.864 0 554.56 0h-21.12c-19.072 0-36.352 6.08-41.408 17.28C442.688 86.976 323.648 128 188.736 128h-9.6C150.912 128 128 158.976 128 187.392l0.064 351.552c14.08 234.816 181.888 433.792 408.064 483.904a31.808 31.808 0 0 0 13.824 0c222.656-49.28 388.672-242.752 407.296-472.768A33.152 33.152 0 0 0 960 537.024V187.392C960 158.08 937.984 128 908.864 128zM896 526.016a31.04 31.04 0 0 0-1.856 9.088c-12.224 204.032-156.16 377.28-351.104 423.68C348.096 912.32 204.16 739.2 192 537.024V199.936C342.208 199.168 472.704 148.992 539.328 64h8.576C609.984 146.176 745.216 199.168 896 199.936v326.08z" p-id="6254"></path><path d="M416 352c0 59.456 40.96 109.12 96 123.456V832a32 32 0 0 0 64 0v-64h64a32 32 0 0 0 0-64h-64v-64h64a32 32 0 0 0 0-64h-64V475.456c55.04-14.336 96-64 96-123.456 0-70.592-57.408-128-128-128s-128 57.408-128 128z m192 0a64 64 0 1 1-128 0 64 64 0 0 1 128 0z" p-id="6255"></path></svg>