<?xml version="1.0" standalone="no"?><!DOCTYPE svg PUBLIC "-//W3C//DTD SVG 1.1//EN" "http://www.w3.org/Graphics/SVG/1.1/DTD/svg11.dtd"><svg t="1597398394329" class="icon" viewBox="0 0 1122 1024" version="1.1" xmlns="http://www.w3.org/2000/svg" p-id="4847" xmlns:xlink="http://www.w3.org/1999/xlink" width="128" height="128"><defs><style type="text/css"></style></defs><path d="M275.00362238 90.125h54.4769956v108.95399121H275.00362238zM634.03704852 90.125h54.47699561v108.95399121h-54.4769956z" p-id="4848"></path><path d="M851.516078 933.44604705H90.125V133.87817783h135.12010666V210.23176194h153.5650741V133.87817783h205.89730498V210.23176194h153.13612117V133.87817783h113.67247109v456.83464663h-42.89527194V176.77344976h-27.88192721V253.12703387h-238.92666505V176.77344976h-120.1067611V253.12703387H182.34983472V176.77344976H133.02027194v713.77732536h675.60053412V819.34462384h42.89527194v114.10142321z" p-id="4849"></path><path d="M612.58941297 509.21180752h-120.10676194v76.35358411h120.10676194v43.753177h-120.10676194v119.677809H449.15842615v-119.677809H329.48061797v-43.753177h119.67780818V509.21180752H329.48061797V465.88758264H446.15575721l-0.42895213-0.42895294-54.04804266-54.04804267 30.88459534-30.88459533L476.18244748 434.57403436l54.04804349-54.04804266 30.88459533 30.88459533-54.04804265 54.04804266-0.42895295 0.42895295h105.95132227v43.32422488zM920.14851327 878.11114639l-30.45564321-30.45564322 64.3429075-64.3429075-64.3429075-64.34290832 30.45564321-30.45564322 94.79855072 94.79855154-94.79855072 94.79855072z" p-id="4850"></path><path d="M733.12512702 761.86495929h245.36095587v42.89527194h-245.36095587zM699.66681485 758.4333374L604.86826413 663.63478668l94.79855072-94.79855154 30.02669028 30.45564321-64.3429075 64.34290833 64.3429075 64.3429075-30.02669028 30.45564322z" p-id="4851"></path><path d="M640.9002923 642.1871503h245.36095587v42.89527194h-245.36095587z" p-id="4852"></path></svg>