<?xml version="1.0" standalone="no"?><!DOCTYPE svg PUBLIC "-//W3C//DTD SVG 1.1//EN" "http://www.w3.org/Graphics/SVG/1.1/DTD/svg11.dtd"><svg t="1597398628790" class="icon" viewBox="0 0 1024 1024" version="1.1" xmlns="http://www.w3.org/2000/svg" p-id="8233" xmlns:xlink="http://www.w3.org/1999/xlink" width="128" height="128"><defs><style type="text/css"></style></defs><path d="M478.885572 168.119403c0-61.134328-50.945274-112.079602-112.079602-112.079602h-193.59204c-61.134328 0-112.079602 50.945274-112.079602 112.079602v193.59204c0 61.134328 50.945274 112.079602 112.079602 112.079602h259.820896c25.472637 0 45.850746-20.378109 45.850746-45.850746v-259.820896z m-40.756219 259.820896c0 5.094527-5.094527 5.094527-5.094527 5.094527h-259.820896c-40.756219 0-71.323383-30.567164-71.323383-71.323383v-193.59204c0-40.756219 30.567164-71.323383 71.323383-71.323383h193.59204c40.756219 0 71.323383 30.567164 71.323383 71.323383v259.820896zM866.069652 56.039801h-193.59204c-61.134328 0-112.079602 50.945274-112.079602 112.079602v259.820896c0 25.472637 20.378109 45.850746 45.850746 45.850746h259.820896c61.134328 0 112.079602-50.945274 112.079602-112.079602v-193.59204c0-61.134328-50.945274-112.079602-112.079602-112.079602z m71.323383 305.671642c0 40.756219-30.567164 71.323383-71.323383 71.323383h-259.820896c-5.094527 0-5.094527-5.094527-5.094527-5.094527v-259.820896c0-40.756219 30.567164-71.323383 71.323383-71.323383h193.59204c40.756219 0 71.323383 30.567164 71.323383 71.323383v193.59204zM433.034826 555.303483h-259.820896c-61.134328 0-112.079602 50.945274-112.079602 112.079602v193.592039c0 61.134328 50.945274 112.079602 112.079602 112.079602h193.59204c61.134328 0 112.079602-50.945274 112.079602-112.079602V601.154229c0-25.472637-20.378109-45.850746-45.850746-45.850746z m5.094527 112.079602v193.592039c0 40.756219-30.567164 71.323383-71.323383 71.323383h-193.59204c-40.756219 0-71.323383-30.567164-71.323383-71.323383v-193.592039c0-40.756219 30.567164-71.323383 71.323383-71.323384h259.820896c5.094527 0 5.094527 5.094527 5.094527 5.094528v66.228856zM866.069652 555.303483h-259.820896c-25.472637 0-45.850746 20.378109-45.850746 45.850746v259.820895c0 61.134328 50.945274 112.079602 112.079602 112.079602h193.59204c61.134328 0 112.079602-50.945274 112.079602-112.079602v-193.592039c0-61.134328-50.945274-112.079602-112.079602-112.079602z m71.323383 305.671641c0 40.756219-30.567164 71.323383-71.323383 71.323383h-193.59204c-40.756219 0-71.323383-30.567164-71.323383-71.323383V601.154229c0-5.094527 5.094527-5.094527 5.094527-5.094528h259.820896c40.756219 0 71.323383 30.567164 71.323383 71.323384v193.592039z" p-id="8234"></path></svg>